<?xml version="1.0" encoding="UTF-8"?>
<svg version="1.1" xmlns="http://www.w3.org/2000/svg" width="512" height="512">
<path d="M0 0 C2 1 2 1 3.01464844 3.99816895 C3.38790093 5.3669741 3.75202188 6.73828635 4.109375 8.11132812 C4.41379328 9.24168787 4.41379328 9.24168787 4.72436142 10.39488316 C5.40725295 12.93835125 6.07852573 15.48474592 6.75 18.03125 C7.23531129 19.84788212 7.72135151 21.66431965 8.20806885 23.48057556 C9.25935401 27.40979135 10.30550985 31.34032504 11.34777832 35.27194214 C13.01538536 41.56237441 14.69390026 47.84986382 16.37402344 54.13696289 C18.73331044 62.96927715 21.08781666 71.80285294 23.43945312 80.63720703 C28.20684197 98.5433763 33.00844794 116.44036004 37.80961037 134.33749676 C39.70438331 141.40112735 41.59664128 148.46542841 43.48779297 155.5300293 C48.48110104 174.17991189 53.48670758 192.82627327 58.53466797 211.46144676 C59.29428099 214.26626223 60.05326885 217.07124603 60.81201172 219.876297 C61.05639229 220.77971675 61.30077286 221.6831365 61.5525589 222.61393261 C62.03717508 224.40547176 62.52176908 226.19701692 63.00634003 227.98856831 C64.39766314 233.13069758 65.79357084 238.27155436 67.19298363 243.41148758 C68.0416894 246.53253967 68.88635745 249.65467386 69.72992325 252.77711868 C70.11878397 254.21292119 70.50941328 255.64824605 70.90194321 257.08304977 C71.43417144 259.02913379 71.95970254 260.97704573 72.48486328 262.92504883 C72.7795047 264.00925613 73.07414612 265.09346344 73.37771606 266.21052551 C74 269 74 269 74 273 C65.77479757 272.3457995 57.91920678 270.46132151 49.921875 268.52734375 C48.4181509 268.16813684 46.91429701 267.8094729 45.4103241 267.4513092 C42.19689526 266.68509761 38.98423899 265.91575888 35.77218628 265.14379883 C28.11702847 263.30408765 20.45859679 261.47809502 12.79998589 259.65282059 C11.04457324 259.23441955 9.28920881 258.8158162 7.53389168 258.39701462 C-5.3880483 255.31481353 -18.32244769 252.29114822 -31.26953125 249.31640625 C-32.88360071 248.94508469 -34.4976653 248.57374194 -36.11172485 248.20237732 C-43.0253058 246.61259877 -49.93978313 245.02698388 -56.85709858 243.4535284 C-59.67512507 242.81124938 -62.49201088 242.16407361 -65.30862999 241.51565361 C-67.23173914 241.07474682 -69.15635664 240.6404353 -71.08100891 240.20631409 C-72.7889991 239.81221596 -72.7889991 239.81221596 -74.53149414 239.41015625 C-75.52137833 239.18465088 -76.51126251 238.95914551 -77.53114319 238.72680664 C-80 238 -80 238 -83 236 C-83.97547631 233.22797162 -84.77629691 230.54917141 -85.50854492 227.71191406 C-85.73997192 226.85272873 -85.97139893 225.9935434 -86.20983887 225.10832214 C-86.97764876 222.24688728 -87.72901876 219.38139577 -88.48046875 216.515625 C-89.01652151 214.50500231 -89.55359203 212.49465072 -90.09162903 210.48455811 C-91.51415509 205.15905212 -92.92285567 199.82998201 -94.32873535 194.50006104 C-95.7299379 189.19710192 -97.14367155 183.89748993 -98.55664062 178.59765625 C-100.1999343 172.43148805 -101.8406724 166.26468909 -103.46920776 160.09460449 C-105.81499933 151.2079169 -108.1717887 142.32598674 -110.61962891 133.46679688 C-111.1908743 131.38495642 -111.76150183 129.30294745 -112.33202553 127.22090912 C-112.84539585 125.36165006 -113.37039086 123.50561282 -113.89579773 121.64971924 C-114.19355606 120.56229431 -114.49131439 119.47486938 -114.7980957 118.35449219 C-115.05694046 117.43093933 -115.31578522 116.50738647 -115.58247375 115.55584717 C-116.04740251 112.70983003 -115.79894668 110.75808129 -115 108 C-113.67163086 106.29345703 -113.67163086 106.29345703 -111.96484375 104.7578125 C-111.32877197 104.17459229 -110.6927002 103.59137207 -110.03735352 102.99047852 C-109.34440186 102.37487061 -108.6514502 101.7592627 -107.9375 101.125 C-106.46588883 99.78283382 -104.99454182 98.44037795 -103.5234375 97.09765625 C-102.76901367 96.41590332 -102.01458984 95.73415039 -101.23730469 95.03173828 C-97.80686912 91.9164955 -94.43591077 88.73920921 -91.0625 85.5625 C-89.73067764 84.31357929 -88.39864444 83.06488338 -87.06640625 81.81640625 C-82.15688472 77.21083575 -77.25638114 72.59569947 -72.35571289 67.98071289 C-66.91768108 62.86077457 -61.47011829 57.75109702 -56.01953125 52.64453125 C-51.17337393 48.10304394 -46.33510759 43.55324774 -41.5 39 C-33.34501823 31.32084167 -25.1744443 23.65843007 -17 16 C-14.02063137 13.20854877 -11.04150694 10.4168372 -8.0625 7.625 C-7.36954834 6.97587646 -6.67659668 6.32675293 -5.96264648 5.65795898 C-5.32657471 5.06184814 -4.69050293 4.4657373 -4.03515625 3.8515625 C-3.4719165 3.32385254 -2.90867676 2.79614258 -2.32836914 2.25244141 C-1.54267139 1.51165305 -0.76357329 0.76357329 0 0 Z " fill="#000000" transform="translate(339,26)"/>
<path d="M0 0 C4.50888933 4.28894351 5.90352751 10.18591924 7.48510742 16.07299805 C7.65522213 16.70058801 7.82533684 17.32817797 8.00060654 17.9747858 C8.56131396 20.04830552 9.11464473 22.12371771 9.66796875 24.19921875 C10.06836768 25.68560562 10.46922214 27.17186984 10.87049866 28.65802002 C11.94706563 32.65072873 13.01708885 36.64516131 14.08528137 40.64011765 C15.19803339 44.79985944 16.31462264 48.95857142 17.43066406 53.11743164 C18.7966682 58.20879514 20.16188462 63.30036583 21.52432251 68.39268494 C24.27261691 78.6606004 27.05226284 88.91937799 29.86008644 99.17116356 C30.98725516 103.29288006 32.10668544 107.41670331 33.22531033 111.54074574 C34.0984761 114.75777958 34.97770619 117.97285329 35.86557007 121.18588257 C36.84505034 124.73386229 37.80723614 128.2861183 38.765625 131.83984375 C39.19537376 133.37103851 39.19537376 133.37103851 39.63380432 134.9331665 C41.29822255 141.18988659 43.02223102 148.0062769 41.5625 154.4375 C38.17052902 159.56499057 35.60466708 161.28193871 29.56933594 162.95605469 C28.87692684 163.1538792 28.18451775 163.35170372 27.47112656 163.55552292 C25.17376546 164.20490118 22.86915463 164.82201864 20.5625 165.4375 C18.93658748 165.88582779 17.31098335 166.33527529 15.68566895 166.7857666 C10.28378634 168.27148814 4.86901478 169.70697454 -0.546875 171.140625 C-2.53232488 171.66887612 -4.51769534 172.19742587 -6.50299072 172.72625732 C-11.67570128 174.10325019 -16.84950839 175.47607694 -22.02355957 176.84802246 C-27.30809103 178.25014919 -32.59147278 179.65659487 -37.875 181.0625 C-45.57464492 183.11047233 -53.27458649 185.15732174 -60.97558594 187.20019531 C-62.17865891 187.51964615 -62.17865891 187.51964615 -63.40603638 187.84555054 C-65.41594323 188.37839683 -67.4266695 188.90815001 -69.4375 189.4375 C-70.11170109 189.61816387 -70.78590218 189.79882774 -71.4805336 189.98496628 C-80.4375942 192.05621899 -89.45215425 190.79574974 -97.4375 186.4375 C-98.08332031 186.086875 -98.72914062 185.73625 -99.39453125 185.375 C-114.44887241 175.92913888 -116.85278242 151.67158994 -121.17578125 135.75 C-121.43597738 134.79171295 -121.69617352 133.8334259 -121.96425438 132.84609985 C-123.33695142 127.78437046 -124.70443146 122.72125957 -126.06860352 117.65722656 C-127.18763965 113.50770196 -128.31797899 109.36151155 -129.45825195 105.21777344 C-130.85008083 100.15956318 -132.22178974 95.0962842 -133.57982445 90.02890015 C-134.09484166 88.11997733 -134.61658363 86.21285381 -135.14562416 84.30776978 C-143.0790621 55.67862898 -143.0790621 55.67862898 -136.8203125 42.6796875 C-127.49851618 27.56468442 -112.63830211 24.82133107 -96.50390625 20.5859375 C-94.45921264 20.04071957 -92.41477801 19.49452953 -90.37059021 18.94741821 C-85.00982147 17.51537703 -79.64571297 16.09627177 -74.28076172 14.67999268 C-68.84333715 13.24223938 -63.40908819 11.79259019 -57.97460938 10.34375 C-51.8528872 8.71248527 -45.73084134 7.08250446 -39.60658264 5.46078491 C-38.21101843 5.09120131 -38.21101843 5.09120131 -36.78726101 4.71415138 C-35.00438361 4.24233086 -33.22136682 3.77103667 -31.43819523 3.30032921 C-26.15005455 1.90191059 -20.8758693 0.46295514 -15.62193298 -1.05990601 C-10.03005509 -2.34648438 -5.23587743 -2.37994429 0 0 Z " fill="#000000" transform="translate(209.4375,124.5625)"/>
<path d="M0 0 C1.216875 -0.01417969 2.43375 -0.02835937 3.6875 -0.04296875 C6.79493598 0.17323257 8.44701199 0.47942945 11 2.1875 C13.32228755 5.43870257 13.52639838 8.27711205 13 12.1875 C9.26194412 20.53137473 2.8768486 25.73184393 -5.3984375 29.23046875 C-7.35409247 30.16285502 -7.35409247 30.16285502 -8 33.1875 C-7.67 33.8475 -7.34 34.5075 -7 35.1875 C-2.8180889 34.59893473 0.86177177 33.60057319 4.8125 32.125 C11.20699088 29.95119044 16.73100583 28.62110696 23 31.625 C25.95628113 33.93459463 25.95628113 33.93459463 26.30859375 35.97265625 C26.63445975 41.72962223 25.56134218 44.9476251 21.828125 49.34375 C16.05384925 55.16737853 9.3942536 58.76311206 2 62.1875 C2 63.5075 2 64.8275 2 66.1875 C2.9075 66.06375 3.815 65.94 4.75 65.8125 C5.70326172 65.68294922 5.70326172 65.68294922 6.67578125 65.55078125 C8.40980833 65.27974845 10.13574883 64.9559999 11.85546875 64.60546875 C19.00658789 63.20062278 24.4847186 62.50655167 31 66.375 C32.68373732 69.42677389 32.40482896 71.77537017 32 75.1875 C28.72182038 82.33989191 21.39158462 86.6404614 14.4375 89.8125 C11.73411769 90.9754269 11.73411769 90.9754269 11.125 93.875 C11.08375 94.638125 11.0425 95.40125 11 96.1875 C11.65226563 96.15269531 12.30453125 96.11789062 12.9765625 96.08203125 C18.4692705 95.91190313 22.24492736 96.09670278 27 99.1875 C29.34858092 101.53608092 29.34352521 102.1632732 29.4375 105.375 C29.30737625 109.64853777 28.44010661 112.2866718 25.71484375 115.578125 C18.68592837 122.17473807 8.84383313 125.91239491 0.24316406 130.09472656 C-1.285744 130.83954508 -2.81235436 131.58909432 -4.33691406 132.34277344 C-20.70037136 140.4275384 -35.69563292 145.57742072 -53.83886719 147.79736328 C-59.96040098 148.55286305 -66.07326628 149.37539087 -72.1875 150.1875 C-73.46778076 150.35612549 -74.74806152 150.52475098 -76.06713867 150.69848633 C-85.75077717 151.98577688 -95.38424143 153.46760822 -105 155.1875 C-112.96944025 138.2296578 -120.73827106 121.19298564 -128.29638672 104.04785156 C-131.1690927 97.53480215 -134.04678743 91.03149778 -137.0859375 84.59375 C-137.74287598 83.19092773 -137.74287598 83.19092773 -138.41308594 81.75976562 C-139.19210991 80.10630136 -139.98346114 78.4585589 -140.79003906 76.81835938 C-143.13336837 71.82017311 -143.13336837 71.82017311 -142.52734375 68.9453125 C-140.5330465 66.65008549 -138.35681021 64.90675616 -135.9375 63.0625 C-127.62945574 56.40527493 -121.33557647 48.7155521 -115.0625 40.1875 C-107.79127284 30.34577595 -99.56846859 20.1098745 -88 15.1875 C-83.87845805 15.37025951 -81.74663817 16.91161976 -78.6875 19.5625 C-74.62693178 22.83108963 -71.10062743 25.0318891 -66 26.1875 C-65.360625 26.33703125 -64.72125 26.4865625 -64.0625 26.640625 C-52.68367124 27.93367372 -40.48390133 18.01263934 -31.59985352 11.8503418 C-22.00267136 5.30339726 -11.75440146 0.06225848 0 0 Z " fill="#000000" transform="translate(249,315.8125)"/>
<path d="M0 0 C4.34160313 2.21698883 5.52177924 4.82964048 7.12930298 9.29937744 C9.1615557 15.60277279 10.78637065 22.02908708 12.48046875 28.4296875 C12.92557711 30.09934203 13.37104692 31.76890024 13.81684875 33.43836975 C14.7749604 37.02948519 15.73051722 40.6212671 16.68408203 44.21359253 C18.20720214 49.95150353 19.73606963 55.68787391 21.265625 61.42407227 C23.69455863 70.53586979 26.11965996 79.64868217 28.5431118 88.76193905 C33.26862592 106.53171172 38.00102105 124.29965237 42.73525238 142.06710434 C43.50183801 144.94439876 44.26818296 147.8217572 45.03448486 150.6991272 C50.68455538 171.9121759 56.3621314 193.11636358 62.16555786 214.28805542 C63.89714613 220.60952209 65.61926927 226.93357513 67.34132385 233.25764465 C68.92228075 239.06032452 70.51145536 244.8606611 72.109375 250.65869141 C73.75413394 256.62840992 75.38234201 262.60242199 76.99411678 268.58113194 C77.85259962 271.76355768 78.72013836 274.94301941 79.60159302 278.11917114 C80.56744309 281.60319833 81.50728527 285.09329087 82.44140625 288.5859375 C82.73213013 289.61137161 83.022854 290.63680573 83.3223877 291.6933136 C84.92890468 297.83059648 85.54703353 303.01983303 83 309 C79.75724517 312.24275483 77.31245494 313.87380241 72.75 314.3125 C68.26296168 313.93858014 66.38968622 312.92745628 63 310 C60.31992834 305.38027583 58.9283814 300.70754705 57.59350586 295.58666992 C57.37090434 294.75432673 57.14830282 293.92198355 56.9189558 293.06441784 C56.17808166 290.28803636 55.44651402 287.50928867 54.71484375 284.73046875 C54.18604711 282.74183677 53.65664374 280.75336603 53.12667847 278.76504517 C51.9882313 274.48901052 50.85382264 270.21193265 49.7225647 265.93399048 C47.91678148 259.10556206 46.10214396 252.27950684 44.28588867 245.45385742 C42.39998426 238.36505698 40.51455074 231.27613387 38.63209534 224.18641663 C33.1933332 203.70448535 27.71144127 183.23428984 22.21589184 162.7675333 C20.34815644 155.81088092 18.48380661 148.8533278 16.62133789 141.89526367 C15.55881337 137.92625431 14.49623432 133.95725955 13.43359375 129.98828125 C13.17192728 129.01091948 12.91026081 128.0335577 12.64066505 127.0265789 C9.32730298 114.65337824 5.99946197 102.28419186 2.65470409 89.91944027 C0.36959026 81.4714032 -1.90840076 73.02146706 -4.18142223 64.5701685 C-5.78527265 58.60907786 -7.39859664 52.65066342 -9.0192461 46.69411945 C-10.0111068 43.03922769 -10.99354012 39.38185173 -11.97331429 35.72370338 C-12.42701077 34.03735146 -12.88457813 32.35203528 -13.3463726 30.66788292 C-17.83693811 14.27619765 -17.83693811 14.27619765 -17 7 C-12.85241923 -0.19806342 -7.73979079 -0.84234316 0 0 Z " fill="#000000" transform="translate(362,1)"/>
<path d="M0 0 C1.11485291 1.51959229 1.11485291 1.51959229 1.99194336 3.50878906 C2.33052368 4.2569841 2.669104 5.00517914 3.01794434 5.77604675 C3.37167114 6.59760757 3.72539795 7.4191684 4.08984375 8.265625 C4.4710437 9.118647 4.85224365 9.97166901 5.24499512 10.85054016 C6.48971671 13.64442775 7.71356177 16.44695346 8.9375 19.25 C9.78838753 21.16981385 10.64068921 23.08900153 11.49438477 25.00756836 C13.20415925 28.85518518 14.90624727 32.7060495 16.6015625 36.56005859 C18.71361015 41.35807531 20.84847905 46.14535031 23 50.92578125 C23.29910782 51.59042389 23.59821564 52.25506653 23.90638733 52.93984985 C24.47875437 54.21129091 25.05122432 55.48268563 25.62380981 56.75402832 C27.34269939 60.57435596 29.05371128 64.39815177 30.75341797 68.22705078 C31.57149297 70.04681105 32.40853332 71.85818781 33.26611328 73.65966797 C33.64364746 74.46162598 34.02118164 75.26358398 34.41015625 76.08984375 C34.74281494 76.77812256 35.07547363 77.46640137 35.41821289 78.17553711 C36 80 36 80 35 83 C33.29440308 84.02392578 33.29440308 84.02392578 31.05029297 84.9453125 C30.21207001 85.29577637 29.37384705 85.64624023 28.51022339 86.00732422 C27.59677155 86.37615723 26.6833197 86.74499023 25.7421875 87.125 C24.80577423 87.51316895 23.86936096 87.90133789 22.90457153 88.30126953 C19.89886369 89.54453235 16.88716172 90.77246726 13.875 92 C11.86676879 92.82710909 9.85895075 93.65522214 7.8515625 94.484375 C3.32933471 96.35107993 -1.19642483 98.20882457 -5.7276001 100.05371094 C-7.79817667 100.91595528 -9.83640905 101.83064326 -11.87841797 102.7578125 C-15 104 -15 104 -19 104 C-29.01150023 82.23062049 -38.89434146 60.40852776 -48.57043457 38.48779297 C-50.17682269 34.84911688 -51.80757101 31.22264584 -53.453125 27.6015625 C-55 24 -55 24 -55 22 C-50.30924483 19.84774839 -45.61763169 17.69738096 -40.92529297 15.54858398 C-39.33685305 14.82088214 -37.74862859 14.09270976 -36.16064453 13.36401367 C-31.54237294 11.24499039 -26.91900419 9.13773694 -22.29003906 7.04217529 C-19.9931787 5.99689569 -17.70364178 4.93660416 -15.4140625 3.87548828 C-13.97423732 3.21976467 -12.53414507 2.56462708 -11.09375 1.91015625 C-10.43564331 1.60049423 -9.77753662 1.29083221 -9.0994873 0.9717865 C-5.6447949 -0.57940577 -3.56293263 -1.46515312 0 0 Z " fill="#000000" transform="translate(64,407)"/>
<path d="M0 0 C2.99407759 1.68504445 3.89946735 4.51426608 5.20605469 7.54516602 C5.51187469 8.22236191 5.8176947 8.8995578 6.13278198 9.59727478 C7.14527061 11.84862144 8.13645945 14.10871229 9.12792969 16.36938477 C9.83610972 17.95492368 10.54560365 19.53987634 11.25634766 21.12426758 C13.11275071 25.27204874 14.95150034 29.4274123 16.7857666 33.58502197 C18.51332979 37.49496841 20.25451241 41.39882489 21.99511719 45.30297852 C23.99501303 49.7913509 25.99260273 54.28069876 27.98046875 58.77441406 C31.28609859 66.24561049 34.61377314 73.70554025 37.99511719 81.14282227 C38.32496613 81.86904785 38.65481506 82.59527344 38.99465942 83.34350586 C40.56291294 86.79486442 42.1353752 90.24420983 43.71435547 93.69067383 C44.26901103 94.90903876 44.82354314 96.1274599 45.37792969 97.34594727 C45.86261719 98.40507324 46.34730469 99.46419922 46.84667969 100.55541992 C47.87792969 103.05688477 47.87792969 103.05688477 47.87792969 105.05688477 C43.80789405 106.79640789 39.73281913 108.52334395 35.65258789 110.23876953 C34.26506301 110.82419499 32.87897846 111.41304638 31.49438477 112.00537109 C29.50482269 112.85580017 27.51041961 113.69380624 25.51464844 114.52954102 C24.31541748 115.03751221 23.11618652 115.5454834 21.88061523 116.06884766 C18.87792969 117.05688477 18.87792969 117.05688477 15.87792969 116.05688477 C14.69441788 113.89701405 13.70773095 111.82074102 12.75292969 109.56079102 C12.45371613 108.87739655 12.15450256 108.19400208 11.84622192 107.48989868 C11.19264919 105.99410186 10.54395284 104.49616738 9.8994751 102.99642944 C8.5060979 99.7541655 7.08997836 96.52200968 5.67483521 93.28919983 C4.92114276 91.56715804 4.16862607 89.84460125 3.41720581 88.12156677 C-0.55590427 79.02340048 -4.65827156 69.98501662 -8.76791382 60.94790649 C-15.6954042 45.71093637 -22.54276908 30.44805217 -29.12207031 15.05688477 C-24.33689909 11.28751305 -18.99284783 8.64127783 -13.62207031 5.80688477 C-12.57664062 5.23969727 -11.53121094 4.67250977 -10.45410156 4.08813477 C-9.44734375 3.55704102 -8.44058594 3.02594727 -7.40332031 2.47875977 C-6.02756836 1.74544434 -6.02756836 1.74544434 -4.62402344 0.99731445 C-2.12207031 0.05688477 -2.12207031 0.05688477 0 0 Z " fill="#000000" transform="translate(94.1220703125,378.943115234375)"/>
<path d="M0 0 C15.14073719 4.1691885 25.8494139 13.02843513 33.99707031 26.22705078 C41.31622149 39.16562815 43.03554247 54.28021382 40.28125 68.78515625 C37.31782778 78.81060481 33.14660095 87.35479899 26 95 C23.09331725 92.09331725 22.59756357 88.54010927 21.56982422 84.66650391 C21.33544647 83.80456924 21.10106873 82.94263458 20.85958862 82.05458069 C20.0845201 79.19702326 19.31938811 76.33691042 18.5546875 73.4765625 C18.01990993 71.49348011 17.48467648 69.5105206 16.94900513 67.52767944 C15.8267515 63.3675837 14.70926046 59.20624641 13.59521484 55.04394531 C12.16627552 49.70620944 10.72685518 44.37136987 9.28400993 39.03737831 C8.17701526 34.94122018 7.07497285 30.84374277 5.97449112 26.74583054 C5.44558955 24.77825111 4.91528793 22.81104748 4.38357162 20.84422684 C3.64123399 18.09487644 2.90542429 15.3438614 2.17138672 12.59228516 C1.95011108 11.77759262 1.72883545 10.96290009 1.50085449 10.1235199 C0.56784819 6.60115559 0 3.66947374 0 0 Z " fill="#000000" transform="translate(402,105)"/>
<path d="M0 0 C-0.4135108 3.88493172 -0.91721918 7.7530389 -1.4375 11.625 C-1.55287109 12.71941406 -1.66824219 13.81382812 -1.78710938 14.94140625 C-2.91958752 22.89284857 -2.91958752 22.89284857 -5.99267578 26.04199219 C-12.49763226 30.4793355 -19.0852529 33.24838282 -27 32 C-32.08583886 30.06111715 -36.81365062 27.49639425 -41 24 C-42.13231464 20.79177518 -42.02779563 17.68549295 -42.015625 14.3203125 C-42.01336914 13.51094238 -42.01111328 12.70157227 -42.00878906 11.86767578 C-42.00588867 11.25134277 -42.00298828 10.63500977 -42 10 C-36.82438504 8.5677256 -31.64656775 7.1438177 -26.46655273 5.72753906 C-24.70550893 5.24479501 -22.94508331 4.75978982 -21.18530273 4.27246094 C-18.65248054 3.57148219 -16.11753033 2.87872462 -13.58203125 2.1875 C-12.40674614 1.85939331 -12.40674614 1.85939331 -11.2077179 1.5246582 C-7.37829018 0.48914982 -4.008219 -0.2790753 0 0 Z " fill="#000000" transform="translate(210,303)"/>
<path d="M0 0 C1 1 1 1 1.33984375 3.73828125 C0.90065757 7.95345892 -0.47658668 9.20855981 -3.4375 12.1875 C-4.345 13.12980469 -5.2525 14.07210937 -6.1875 15.04296875 C-6.65542969 15.52685059 -7.12335938 16.01073242 -7.60546875 16.50927734 C-10.62561841 19.73774965 -13.32810993 23.2390919 -16.08984375 26.6875 C-20.4062705 31.91311276 -20.4062705 31.91311276 -23.5625 32.375 C-24.7690625 32.189375 -24.7690625 32.189375 -26 32 C-28 29 -28 29 -27.97265625 26.73046875 C-26.59073949 22.85111207 -24.17979751 20.33251429 -21.4375 17.3125 C-20.34362129 16.07678593 -19.2511799 14.83979806 -18.16015625 13.6015625 C-17.35408936 12.69132324 -17.35408936 12.69132324 -16.53173828 11.76269531 C-13.73319026 8.54217942 -11.1325137 5.16715379 -8.5234375 1.79296875 C-5.72987076 -1.49484442 -3.96715528 -1.0172193 0 0 Z " fill="#000000" transform="translate(463,55)"/>
<path d="M0 0 C6.46103564 0.28542728 12.300377 2.70713264 18.3125 4.9375 C19.31345703 5.29779297 20.31441406 5.65808594 21.34570312 6.02929688 C28.74058835 8.74058835 28.74058835 8.74058835 31 11 C31.25 13.5 31.25 13.5 31 16 C30.34 16.66 29.68 17.32 29 18 C21.73010128 17.76920956 15.70575699 15.6823028 9 13 C7.57107422 12.44699219 7.57107422 12.44699219 6.11328125 11.8828125 C-0.83182084 9.16817916 -0.83182084 9.16817916 -2 8 C-2.1875 5.0625 -2.1875 5.0625 -2 2 C-1.34 1.34 -0.68 0.68 0 0 Z " fill="#000000" transform="translate(469,195)"/>
<path d="M0 0 C0.6875 2.8125 0.6875 2.8125 1 6 C-1.18718304 9.01809139 -3.62581493 9.69925318 -7.1484375 10.60546875 C-8.15390625 10.86650391 -9.159375 11.12753906 -10.1953125 11.39648438 C-11.24460937 11.65751953 -12.29390625 11.91855469 -13.375 12.1875 C-14.93734375 12.59645508 -14.93734375 12.59645508 -16.53125 13.01367188 C-26.08286471 15.45043292 -26.08286471 15.45043292 -30 15 C-32 12 -32 12 -32.0625 9.5 C-31 7 -31 7 -28.03515625 5.515625 C-23.58096856 3.74054956 -19.00594141 2.47285797 -14.375 1.25 C-13.12589844 0.90001953 -13.12589844 0.90001953 -11.8515625 0.54296875 C-7.59164925 -0.58984258 -4.32519428 -1.44761604 0 0 Z " fill="#000000" transform="translate(502,126)"/>
<path d="M0 0 C0.66 4.62 1.32 9.24 2 14 C-0.58090767 15.31746333 -3.16450458 16.62909617 -5.75 17.9375 C-6.47960937 18.31068359 -7.20921875 18.68386719 -7.9609375 19.06835938 C-9.02441406 19.60493164 -9.02441406 19.60493164 -10.109375 20.15234375 C-10.75874023 20.48226318 -11.40810547 20.81218262 -12.07714844 21.15209961 C-14.03293079 22.01452116 -15.91540694 22.54374179 -18 23 C-17.72409778 15.74377169 -17.30068518 8.11211507 -13 2 C-8.49781594 -0.80558896 -5.11636258 -1.27909064 0 0 Z " fill="#000000" transform="translate(232,298)"/>
</svg>
