<svg width="80" height="81" viewBox="0 0 80 81" fill="none" xmlns="http://www.w3.org/2000/svg">
<path d="M4.77728 17.0969C4.95058 17.0963 5.12388 17.0956 5.30243 17.095C5.49102 17.0967 5.67961 17.0984 5.87391 17.1001C6.07367 17.1 6.27343 17.1 6.47924 17.0999C7.02575 17.0998 7.57221 17.1025 8.1187 17.1058C8.69029 17.1087 9.26188 17.109 9.83348 17.1095C10.9153 17.111 11.9971 17.1148 13.0789 17.1195C14.3108 17.1248 15.5427 17.1274 16.7745 17.1297C19.308 17.1346 21.8415 17.1429 24.375 17.1533C24.3784 17.4086 24.3784 17.4086 24.3819 17.6691C24.391 18.3034 24.4031 18.9376 24.416 19.5718C24.4212 19.8458 24.4256 20.1198 24.4291 20.3938C24.4344 20.7887 24.4426 21.1835 24.4513 21.5784C24.4528 21.7608 24.4528 21.7608 24.4543 21.9469C24.4779 22.8287 24.6518 23.499 25.2734 24.165C25.7896 24.4231 26.1486 24.4096 26.7188 24.3408C27.3813 23.9879 27.3813 23.9879 27.8125 23.4033C27.8371 22.9365 27.8529 22.4728 27.8619 22.0056C27.8668 21.7982 27.8668 21.7982 27.8718 21.5866C27.882 21.144 27.8912 20.7014 27.9004 20.2588C27.9071 19.9591 27.914 19.6594 27.9208 19.3597C27.9376 18.6243 27.9534 17.8888 27.9688 17.1533C34.0836 17.139 40.1985 17.128 46.3134 17.1214C47.0351 17.1206 47.7568 17.1198 48.4785 17.119C48.694 17.1187 48.694 17.1187 48.9139 17.1185C51.2412 17.1158 53.5685 17.1108 55.8958 17.1051C58.2833 17.0992 60.6708 17.0958 63.0583 17.0945C64.5319 17.0936 66.0055 17.0909 67.479 17.0859C68.4891 17.0826 69.4992 17.0816 70.5093 17.0824C71.0923 17.0828 71.6753 17.0821 72.2583 17.0788C72.8902 17.0752 73.5221 17.0764 74.154 17.0781C74.3385 17.0763 74.523 17.0745 74.7132 17.0726C75.6895 17.0798 76.2934 17.1137 77.0312 17.7783C77.585 18.4367 77.5641 19.1009 77.5532 19.9248C77.5533 20.0605 77.5534 20.1963 77.5534 20.3362C77.5531 20.7834 77.5495 21.2306 77.5458 21.6778C77.5449 21.9885 77.5442 22.2992 77.5438 22.6098C77.542 23.4264 77.5374 24.243 77.5322 25.0596C77.5274 25.8933 77.5253 26.727 77.5229 27.5607C77.5179 29.1958 77.5099 30.8308 77.5 32.4658C77.4062 32.4962 77.3123 32.5266 77.2157 32.5579C77.0911 32.5987 76.9666 32.6395 76.8383 32.6816C76.7154 32.7217 76.5926 32.7617 76.466 32.803C75.8864 33.0078 75.3429 33.2729 74.7949 33.5498C74.6873 33.6021 74.5796 33.6543 74.4687 33.7082C73.865 34.0103 73.4364 34.313 72.9688 34.8096C72.8656 34.8096 72.7625 34.8096 72.6562 34.8096C72.6138 34.9014 72.5713 34.9932 72.5275 35.0879C72.3476 35.4272 72.1491 35.6869 71.9043 35.9814C70.6188 37.6693 70.1495 39.7556 70.3125 41.8408C70.5776 43.6552 71.3411 45.4033 72.6562 46.6846C72.6562 46.7877 72.6562 46.8908 72.6562 46.9971C72.7459 47.0394 72.8355 47.0817 72.9279 47.1252C73.287 47.3126 73.6044 47.5259 73.9355 47.7588C74.8472 48.372 75.7823 48.771 76.8216 49.1158C77.012 49.179 77.012 49.179 77.2063 49.2435C77.3517 49.2917 77.3517 49.2917 77.5 49.3408C77.5145 51.1378 77.5256 52.9347 77.5324 54.7317C77.5357 55.5661 77.5401 56.4005 77.5471 57.2349C77.5539 58.0404 77.5577 58.8457 77.5593 59.6512C77.5605 59.9583 77.5627 60.2654 77.5661 60.5726C77.5706 61.0031 77.5712 61.4335 77.571 61.8641C77.5743 62.0541 77.5743 62.0541 77.5778 62.2479C77.5718 63.0675 77.4308 63.5435 76.875 64.1846C76.3137 64.5846 75.9323 64.7118 75.246 64.711C74.9922 64.7124 74.9922 64.7124 74.7333 64.7138C74.5484 64.7124 74.3634 64.7111 74.1728 64.7097C73.9756 64.7101 73.7784 64.7105 73.5753 64.7109C73.0283 64.7119 72.4814 64.7101 71.9344 64.7077C71.3445 64.7057 70.7546 64.7064 70.1646 64.7067C69.1426 64.707 68.1206 64.7055 67.0986 64.7029C65.621 64.6991 64.1433 64.6978 62.6657 64.6973C60.2683 64.6962 57.871 64.6931 55.4736 64.6887C53.1448 64.6844 50.8159 64.681 48.4871 64.6791C48.3435 64.6789 48.2 64.6788 48.0521 64.6787C47.332 64.6781 46.6118 64.6775 45.8917 64.6769C39.9174 64.672 33.9431 64.6638 27.9688 64.6533C27.9681 64.4681 27.9675 64.2828 27.9668 64.092C27.9634 63.4032 27.9549 62.7146 27.9449 62.0259C27.9413 61.7281 27.939 61.4303 27.9382 61.1325C27.9367 60.7038 27.9303 60.2754 27.923 59.8468C27.9239 59.6478 27.9239 59.6478 27.9248 59.4447C27.908 58.7578 27.8787 58.4859 27.4345 57.9322C26.7995 57.4438 26.4307 57.3975 25.625 57.4658C24.9922 57.8455 24.7452 58.1764 24.5313 58.8721C24.4949 59.3234 24.4732 59.7613 24.4666 60.213C24.4635 60.3402 24.4605 60.4674 24.4574 60.5985C24.4481 61.0028 24.4408 61.4072 24.4336 61.8115C24.4276 62.0865 24.4215 62.3614 24.4153 62.6364C24.4003 63.3087 24.3872 63.981 24.375 64.6533C21.7224 64.6679 19.0698 64.6789 16.4172 64.6857C15.1855 64.6889 13.9538 64.6933 12.7222 64.7005C11.6485 64.7067 10.5749 64.7107 9.50123 64.7121C8.93283 64.7129 8.36449 64.7148 7.7961 64.7194C7.16126 64.7244 6.52651 64.7245 5.89165 64.7243C5.70362 64.7265 5.5156 64.7288 5.32187 64.7311C4.36486 64.7263 3.6965 64.7228 2.96875 64.0283C2.41497 63.3699 2.43587 62.7057 2.44679 61.8818C2.44672 61.7461 2.44665 61.6103 2.44658 61.4704C2.44691 61.0232 2.45055 60.576 2.45423 60.1288C2.4551 59.8181 2.45577 59.5074 2.45624 59.1968C2.45802 58.3802 2.46263 57.5636 2.46782 56.747C2.47262 55.9133 2.47475 55.0796 2.47712 54.2459C2.48214 52.6109 2.49014 50.9758 2.5 49.3408C2.64075 49.2952 2.64075 49.2952 2.78434 49.2487C2.90888 49.2079 3.03342 49.1671 3.16174 49.125C3.28457 49.085 3.40741 49.0449 3.53397 49.0036C4.11361 48.7988 4.65706 48.5337 5.20508 48.2568C5.31274 48.2046 5.4204 48.1523 5.53131 48.0984C6.13505 47.7963 6.5636 47.4936 7.03125 46.9971C7.13438 46.9971 7.2375 46.9971 7.34375 46.9971C7.38625 46.9052 7.42875 46.8134 7.47254 46.7187C7.65236 46.3794 7.85093 46.1197 8.09571 45.8252C9.38122 44.1374 9.85054 42.051 9.6875 39.9658C9.42245 38.1514 8.65891 36.4033 7.34375 35.1221C7.34375 35.0189 7.34375 34.9158 7.34375 34.8096C7.25352 34.7671 7.16329 34.7246 7.07032 34.6808C6.71929 34.4973 6.41524 34.2884 6.09375 34.0576C4.98995 33.3114 3.75756 32.8818 2.5 32.4658C2.48552 30.6689 2.47441 28.8719 2.46762 27.0749C2.46436 26.2405 2.45994 25.4061 2.45285 24.5717C2.44606 23.7662 2.44232 22.9609 2.44071 22.1554C2.43955 21.8483 2.4373 21.5412 2.43392 21.2341C2.42938 20.8035 2.42876 20.3731 2.42905 19.9425C2.4268 19.8159 2.42456 19.6892 2.42224 19.5587C2.42819 18.7391 2.56917 18.2631 3.125 17.6221C3.6941 17.2147 4.08084 17.0949 4.77728 17.0969ZM37.1149 30.2679C36.0889 31.6489 35.8348 33.0852 36.012 34.7778C36.2883 36.4686 37.1689 37.6094 38.4741 38.6932C39.7901 39.6382 41.2055 39.9756 42.8125 39.8096C44.5463 39.4929 46.014 38.5938 47.0313 37.1533C47.936 35.6699 48.2573 34.0241 47.8613 32.3144C47.3174 30.7007 46.4599 29.4603 45 28.5596C42.0843 27.1321 39.1957 27.7699 37.1149 30.2679ZM55.2344 30.0171C55.1026 30.2204 54.9725 30.4247 54.8438 30.6299C54.6807 30.8815 54.5173 31.133 54.3536 31.3843C54.2603 31.5282 54.167 31.6721 54.0708 31.8204C53.4874 32.7101 52.8883 33.5893 52.291 34.4697C51.9785 34.9305 51.6664 35.3916 51.3543 35.8527C51.1139 36.2078 50.8736 36.5627 50.6332 36.9177C49.8748 38.0376 49.1171 39.158 48.3594 40.2783C48.0626 40.7172 47.7657 41.156 47.4689 41.5948C47.3952 41.7038 47.3214 41.8128 47.2455 41.925C46.7761 42.619 46.3065 43.3128 45.8367 44.0066C45.5147 44.4822 45.1927 44.9579 44.8708 45.4335C44.7195 45.657 44.5681 45.8805 44.4167 46.104C44.31 46.2616 44.31 46.2616 44.2011 46.4224C44.1311 46.5257 44.0611 46.6289 43.989 46.7353C43.8517 46.9385 43.7147 47.1419 43.5782 47.3457C43.2319 47.862 42.8802 48.3729 42.5175 48.8779C42.4446 48.9815 42.3718 49.0851 42.2967 49.1918C42.1591 49.3873 42.0192 49.5813 41.8768 49.7734C41.3679 50.505 41.328 50.9819 41.4063 51.8408C41.6261 52.3103 41.9326 52.621 42.3438 52.9346C42.9789 53.1387 43.286 53.1523 43.9038 52.9016C44.9999 52.2513 45.6447 50.8762 46.3434 49.8248C47.1752 48.5753 48.0156 47.3316 48.8574 46.0889C49.0141 45.8574 49.1707 45.626 49.3274 45.3946C49.6513 44.916 49.9753 44.4375 50.2993 43.959C50.7622 43.2752 51.225 42.5913 51.6876 41.9073C51.7982 41.7438 51.7982 41.7438 51.9111 41.577C52.2812 41.0298 52.6513 40.4826 53.0214 39.9354C53.7179 38.9053 54.4148 37.8755 55.1129 36.8464C55.4395 36.3648 55.766 35.883 56.0925 35.4013C56.247 35.1734 56.4015 34.9457 56.5561 34.718C57.0295 34.021 57.5007 33.3226 57.9688 32.6221C58.0812 32.454 58.1936 32.286 58.3095 32.1128C58.4089 31.961 58.5084 31.8092 58.6108 31.6528C58.6962 31.5231 58.7815 31.3933 58.8695 31.2596C59.1936 30.6612 59.1984 30.3215 59.0625 29.6533C58.7818 29.1841 58.4662 28.8083 57.9688 28.5596C56.6484 28.4029 55.9804 28.9498 55.2344 30.0171ZM24.7266 30.1221C24.3031 30.7996 24.3473 31.4776 24.3433 32.2491C24.3424 32.3815 24.3415 32.5139 24.3406 32.6503C24.3391 32.9304 24.3381 33.2106 24.3375 33.4907C24.336 33.9177 24.3311 34.3445 24.3262 34.7714C24.3252 35.0439 24.3243 35.3165 24.3237 35.589C24.3218 35.716 24.3199 35.8429 24.3179 35.9738C24.3214 36.8709 24.4664 37.5572 25.127 38.2178C25.5727 38.4597 25.8979 38.5392 26.4063 38.5596C27.1425 38.2945 27.5576 37.9724 27.9688 37.3096C28.06 36.8049 28.0564 36.3083 28.0518 35.7965C28.0527 35.5778 28.0527 35.5778 28.0536 35.3547C28.054 35.047 28.0529 34.7393 28.0502 34.4316C28.0469 33.962 28.0502 33.4929 28.0542 33.0234C28.0538 32.7238 28.053 32.4242 28.0518 32.1246C28.053 31.9849 28.0543 31.8453 28.0556 31.7014C28.0424 30.8168 27.918 30.3346 27.3438 29.6533C26.4274 28.9813 25.4242 29.3247 24.7266 30.1221ZM53.689 44.4501C52.6377 45.953 52.4082 47.5554 52.6563 49.3408C53.0037 50.7889 53.8395 52.1325 55.109 52.9489C56.7301 53.8822 58.3072 54.3475 60.1563 53.8525C61.939 53.2508 63.1816 52.2205 64.043 50.5517C64.7255 49.1325 64.7823 47.4189 64.2871 45.9228C63.6328 44.3808 62.4763 43.0811 60.9253 42.4158C58.1309 41.4689 55.5702 42.1589 53.689 44.4501ZM25 43.7158C24.3191 44.4421 24.3482 45.2073 24.3433 46.1554C24.3424 46.2878 24.3415 46.4201 24.3406 46.5565C24.3391 46.8367 24.3381 47.1168 24.3375 47.397C24.336 47.8239 24.3311 48.2507 24.3262 48.6777C24.3252 48.9502 24.3243 49.2227 24.3237 49.4952C24.3218 49.6222 24.3199 49.7492 24.3179 49.88C24.3214 50.7764 24.5011 51.4019 25.0653 52.1246C25.552 52.4887 26.1275 52.5001 26.7188 52.4658C27.3644 52.1488 27.7013 51.8774 27.9688 51.2158C28.0184 50.8887 28.0184 50.8887 28.0166 50.543C28.0191 50.4115 28.0216 50.2801 28.0242 50.1447C28.025 50.0039 28.0259 49.8631 28.0267 49.718C28.0281 49.572 28.0296 49.426 28.031 49.2755C28.0333 48.9669 28.0347 48.6582 28.0352 48.3496C28.0371 47.8787 28.0448 47.4081 28.0527 46.9372C28.0542 46.637 28.0553 46.3367 28.056 46.0364C28.0591 45.8962 28.0621 45.756 28.0653 45.6116C28.0605 44.9424 28.0303 44.4828 27.6056 43.9474C26.7282 43.1335 26.0171 43.129 25 43.7158Z" fill="#03314B" fill-opacity="0.46"/>
<path d="M43.1543 31.6162C43.8015 31.9756 44.1524 32.3827 44.375 33.0908C44.5176 33.9302 44.4312 34.6395 43.9569 35.3552C43.5095 35.8646 43.0104 36.1555 42.3407 36.2695C41.6009 36.3034 41.0789 36.1538 40.4688 35.747C39.8066 35.129 39.5615 34.6612 39.5111 33.753C39.5497 33.0828 39.76 32.5619 40.224 32.0739C41.1221 31.29 42.0563 31.1368 43.1543 31.6162Z" fill="#03314B" fill-opacity="0.46"/>
<path d="M59.7266 45.7763C60.2841 46.1438 60.6394 46.5571 60.9375 47.1533C61.0241 48.0787 61.0258 48.8735 60.4688 49.6533C59.6391 50.2928 59.0172 50.5219 57.9688 50.4345C57.1389 50.1313 56.6601 49.6607 56.25 48.872C56.0037 48.133 56.1316 47.5719 56.3922 46.8597C57.0493 45.5808 58.4541 45.3114 59.7266 45.7763Z" fill="#03314B" fill-opacity="0.46"/>
</svg>
