<?xml version="1.0" encoding="UTF-8"?>
<svg version="1.1" xmlns="http://www.w3.org/2000/svg" width="512" height="512">
<path d="M0 0 C1.1091275 -0.00412399 2.218255 -0.00824799 3.36099243 -0.01249695 C4.5679628 -0.00171112 5.77493317 0.00907471 7.01847839 0.02018738 C8.29692627 0.0197493 9.57537415 0.01931122 10.89256287 0.01885986 C14.39021629 0.01800036 17.88756005 0.03561854 21.38514161 0.05658174 C25.04331527 0.07535617 28.70149629 0.07709958 32.35971069 0.08065796 C39.28343413 0.08997619 46.20701518 0.1145869 53.13067597 0.14470643 C61.01453958 0.1782574 68.89841005 0.19473819 76.78232729 0.20979273 C92.99678844 0.24113671 109.21110645 0.29389281 125.42546082 0.36076355 C125.44733459 1.99489197 125.44733459 1.99489197 125.46965027 3.66203308 C125.52782154 7.7214414 125.60505263 11.78030592 125.68791199 15.83927917 C125.72107302 17.59276982 125.74913224 19.34636493 125.77189636 21.10002136 C125.80560551 23.62749053 125.85792774 26.15400993 125.91374207 28.68107605 C125.92332695 29.84861923 125.92332695 29.84861923 125.93310547 31.03974915 C126.08400603 36.68352991 127.19696124 40.97308543 131.17546082 45.23576355 C134.47864808 46.88735718 136.77618743 46.8011931 140.42546082 46.36076355 C144.665747 44.10196985 144.665747 44.10196985 147.42546082 40.36076355 C147.5827933 37.37313 147.68407497 34.40535204 147.74186707 31.41545105 C147.77303871 30.0879332 147.77303871 30.0879332 147.80484009 28.7335968 C147.8703268 25.90106614 147.92921644 23.0684413 147.98796082 20.23576355 C148.03114687 18.31778498 148.07476119 16.39981601 148.11882019 14.4818573 C148.22600729 9.77492304 148.32727721 5.06789388 148.42546082 0.36076355 C187.56068601 0.26923588 226.69589727 0.19873899 265.83120809 0.15650223 C270.45002818 0.15149932 275.06884807 0.14632204 279.68766785 0.14103699 C281.06697108 0.13946312 281.06697108 0.13946312 282.47413902 0.13785747 C297.36899534 0.12044563 312.26378999 0.08890366 327.1586097 0.05215237 C342.43866251 0.01476461 357.71868298 -0.00746772 372.99877965 -0.01559043 C382.42971501 -0.0210827 391.86047608 -0.03843817 401.2913578 -0.07090232 C407.75584071 -0.09202349 414.22023333 -0.09844194 420.68474825 -0.09324196 C424.41615215 -0.09067642 428.14725119 -0.09464748 431.87860107 -0.11605835 C435.92295512 -0.13909599 439.96665803 -0.13119995 444.01106262 -0.12025452 C445.19199765 -0.13190588 446.37293267 -0.14355725 447.58965361 -0.15556169 C453.83852675 -0.10968617 457.7032316 0.10728856 462.42546082 4.36076355 C465.96970352 8.57455698 465.83588582 12.82531265 465.76603699 18.09831238 C465.76647507 18.96711029 465.76691315 19.8359082 465.7673645 20.73103333 C465.76527983 23.5935183 465.74196395 26.45541254 465.71842957 29.3177948 C465.71283247 31.30604736 465.70856291 33.29430407 465.70556641 35.28256226 C465.69412662 40.50886003 465.66466676 45.73490663 465.63145447 50.96110535 C465.60073499 56.29676415 465.58705705 61.63246363 465.57194519 66.96818542 C465.53979634 77.43248832 465.48861034 87.89660503 465.42546082 98.36076355 C464.824944 98.55525589 464.22442719 98.74974823 463.60571289 98.95013428 C462.80864426 99.2114061 462.01157562 99.47267792 461.19035339 99.74186707 C460.40421158 99.99823441 459.61806976 100.25460175 458.80810547 100.51873779 C455.0983735 101.82975573 451.62032793 103.52601356 448.11296082 105.29826355 C447.42395691 105.63277527 446.734953 105.96728699 446.02507019 106.31193542 C442.16118371 108.24574168 439.41842596 110.1829597 436.42546082 113.36076355 C435.76546082 113.36076355 435.10546082 113.36076355 434.42546082 113.36076355 C434.15346863 113.94857605 433.88147644 114.53638855 433.60124207 115.14201355 C432.45040461 117.31369354 431.17954261 118.97590524 429.61296082 120.86076355 C421.38566013 131.66286738 418.38205655 145.01528639 419.42546082 158.36076355 C421.12180914 169.97303891 426.00847755 181.16071284 434.42546082 189.36076355 C434.42546082 190.02076355 434.42546082 190.68076355 434.42546082 191.36076355 C434.99909363 191.63146667 435.57272644 191.9021698 436.16374207 192.18107605 C438.46236187 193.38001073 440.49336285 194.74548156 442.61296082 196.23576355 C448.44774233 200.16063295 454.43208132 202.71423039 461.08366394 204.920578 C462.30237183 205.32528069 462.30237183 205.32528069 463.54570007 205.73815918 C464.47618164 206.04634834 464.47618164 206.04634834 465.42546082 206.36076355 C465.51818531 217.86122866 465.58923844 229.36160468 465.6327095 240.86236763 C465.65357462 246.20278767 465.68187293 251.54295175 465.72721863 256.88322449 C465.77071428 262.03794238 465.79460602 267.19241423 465.80496979 272.34730148 C465.81235444 274.31288907 465.82677501 276.27846336 465.84838104 278.24394608 C465.87746435 280.99948868 465.88141475 283.75401767 465.87956238 286.50968933 C465.90113403 287.72565544 465.90113403 287.72565544 465.92314148 288.96618652 C465.88504429 294.21177201 464.98276795 297.25806856 461.42546082 301.36076355 C457.83292212 303.92077093 455.39243945 304.73526576 451.00007153 304.72990704 C449.37580991 304.73886675 449.37580991 304.73886675 447.71873492 304.74800748 C446.53488705 304.73926895 445.35103918 304.73053043 444.13131714 304.7215271 C442.86931089 304.72409037 441.60730464 304.72665365 440.30705577 304.7292946 C436.80656431 304.7360022 433.30634825 304.72400332 429.80589187 304.70896041 C426.03021181 304.6960082 422.25454735 304.70038893 418.47885132 304.70266724 C411.93801886 304.70424049 405.39727617 304.69482589 398.85646629 304.67795372 C389.39956147 304.6535753 379.94270006 304.64575964 370.48576722 304.64198975 C355.14264243 304.63542345 339.79956549 304.61545743 324.45646667 304.58708191 C309.55184671 304.55954597 294.64723975 304.53831011 279.74259949 304.52555847 C278.82391847 304.5247703 277.90523745 304.52398213 276.95871761 304.52317008 C272.34997691 304.51925497 267.74123613 304.51546385 263.13249528 304.51173437 C224.89678363 304.4806329 186.66112538 304.42779223 148.42546082 304.36076355 C148.42135193 303.17522888 148.41724304 301.98969421 148.41300964 300.76823425 C148.39120093 296.36024283 148.33689341 291.95314183 148.27287292 287.545578 C148.24970805 285.63974048 148.23530075 283.73377522 148.22990417 281.82780457 C148.2206034 279.08407632 148.17959011 276.34235292 148.13249207 273.5990448 C148.13839104 272.32532768 148.13839104 272.32532768 148.14440918 271.02587891 C148.03652494 266.62961674 147.84938903 264.88908019 145.00627136 261.34587097 C140.94244386 258.22005682 138.58170824 257.92379343 133.42546082 258.36076355 C129.37563746 260.79065757 127.79445547 262.90833586 126.42546082 267.36076355 C126.19311512 270.24942895 126.05401369 273.05217582 126.01139832 275.9427948 C125.99203217 276.75697372 125.97266602 277.57115265 125.95271301 278.41000366 C125.89317329 280.99765207 125.84663499 283.58534558 125.80046082 286.17326355 C125.76225742 287.93304803 125.72320432 289.69281429 125.68327332 291.45256042 C125.587493 295.75514589 125.50336796 300.05781885 125.42546082 304.36076355 C108.4488455 304.45424464 91.47231063 304.52476115 74.49549675 304.56801224 C66.61268887 304.58862912 58.73004099 304.61673284 50.84733582 304.66252136 C43.97599242 304.7024161 37.10476491 304.72820272 30.23330891 304.73711753 C26.59556233 304.74232788 22.95814728 304.75455537 19.32050705 304.78368378 C15.25752363 304.8159536 11.19511496 304.81672128 7.13200378 304.81486511 C5.92862869 304.82924622 4.7252536 304.84362732 3.4854126 304.85844421 C-2.63948209 304.82811677 -6.91693657 304.805812 -11.57453918 300.36076355 C-15.11878189 296.14697012 -14.98496419 291.89621445 -14.91511536 286.62321472 C-14.91555344 285.75441681 -14.91599152 284.8856189 -14.91644287 283.99049377 C-14.9143582 281.1280088 -14.89104232 278.26611456 -14.86750793 275.4037323 C-14.86191084 273.41547974 -14.85764128 271.42722303 -14.85464478 269.43896484 C-14.84320499 264.21266707 -14.81374513 258.98662047 -14.78053284 253.76042175 C-14.74981336 248.42476295 -14.73613542 243.08906347 -14.72102356 237.75334167 C-14.68887471 227.28903878 -14.63768871 216.82492207 -14.57453918 206.36076355 C-13.67376396 206.06902504 -13.67376396 206.06902504 -12.75479126 205.77139282 C-11.95772263 205.510121 -11.16065399 205.24884918 -10.33943176 204.97966003 C-9.55328995 204.72329269 -8.76714813 204.46692535 -7.95718384 204.20278931 C-4.24745187 202.89177137 -0.7694063 201.19551354 2.73796082 199.42326355 C3.42696472 199.08875183 4.11596863 198.75424011 4.82585144 198.40959167 C8.68973793 196.47578542 11.43249567 194.5385674 14.42546082 191.36076355 C15.08546082 191.36076355 15.74546082 191.36076355 16.42546082 191.36076355 C16.697453 190.77295105 16.96944519 190.18513855 17.24967957 189.57951355 C18.40051703 187.40783356 19.67137902 185.74562186 21.23796082 183.86076355 C29.4652615 173.05865972 32.46886508 159.70624071 31.42546082 146.36076355 C29.72911249 134.74848818 24.84244408 123.56081426 16.42546082 115.36076355 C16.42546082 114.70076355 16.42546082 114.04076355 16.42546082 113.36076355 C15.84796082 113.08877136 15.27046082 112.81677917 14.67546082 112.5365448 C12.42889494 111.36255812 10.48297419 110.02515288 8.42546082 108.54826355 C1.36109419 103.77251818 -6.52617641 101.02333788 -14.57453918 98.36076355 C-14.66726368 86.86029844 -14.73831681 75.35992242 -14.78178787 63.85915947 C-14.80265299 58.51873943 -14.8309513 53.17857535 -14.876297 47.83830261 C-14.91979265 42.68358472 -14.94368439 37.52911287 -14.95404816 32.37422562 C-14.96143281 30.40863803 -14.97585338 28.44306374 -14.99745941 26.47758102 C-15.02654272 23.72203842 -15.03049312 20.96750943 -15.02864075 18.21183777 C-15.04302185 17.4011937 -15.05740295 16.59054962 -15.07221985 15.75534058 C-15.03412266 10.50975509 -14.13184632 7.46345854 -10.57453918 3.36076355 C-6.93234197 0.75399357 -4.45721054 -0.01282036 0 0 Z M206.96061707 84.2943573 C200.39469 93.13246269 198.7683471 102.32473245 199.90202332 113.15763855 C201.67031594 123.97853372 207.30649643 131.27945571 215.65983582 138.2162323 C224.08180201 144.26392079 233.14080788 146.42316672 243.42546082 145.36076355 C254.5219896 143.3340003 263.91482648 137.57982177 270.42546082 128.36076355 C276.21598614 118.86720636 278.27190077 108.33402697 275.73796082 97.39201355 C272.25653119 87.06377233 266.76906791 79.12564933 257.42546082 73.36076355 C238.76485156 64.22484027 220.27820235 68.30718772 206.96061707 84.2943573 Z M322.92546082 82.68888855 C322.08225959 83.9898373 321.24970143 85.29772001 320.42546082 86.61076355 C319.38186564 88.22142172 318.33609394 89.8306707 317.28874207 91.43888855 C316.69142273 92.35992371 316.09410339 93.28095886 315.47868347 94.22990417 C311.74450458 99.92397196 307.91055488 105.55083893 304.08805847 111.18583679 C302.08783507 114.13502418 300.09040414 117.08609858 298.09284973 120.03709412 C296.55475086 122.30923755 295.0162623 124.58111673 293.47770691 126.85295105 C288.62417673 134.02033989 283.77504944 141.19070751 278.92546082 148.36076355 C277.0257701 151.16939036 275.12603485 153.97798703 273.22624207 156.7865448 C272.75449554 157.48395279 272.28274902 158.18136078 271.79670715 158.89990234 C268.79230924 163.34113221 265.78678573 167.78159845 262.78053284 172.22157288 C260.71952574 175.26559182 258.6589059 178.30987283 256.59831238 181.35417175 C255.62991694 182.78464016 254.66133853 184.21498472 253.69255066 185.64518738 C253.00926697 186.65391907 253.00926697 186.65391907 252.31217957 187.68302917 C251.86436127 188.34384491 251.41654297 189.00466064 250.95515442 189.6855011 C250.0761062 190.9859166 249.19957084 192.28803467 248.32569885 193.5919342 C246.10944538 196.89661777 243.85856669 200.16639929 241.53727722 203.39836121 C241.07102432 204.06120621 240.60477142 204.72405121 240.12438965 205.40698242 C239.24354562 206.65846905 238.34862863 207.90022554 237.43685913 209.12936401 C234.18024401 213.81166732 233.92473683 216.86366924 234.42546082 222.36076355 C235.83249786 225.36553497 237.79425664 227.35410894 240.42546082 229.36076355 C244.49048607 230.66737881 246.45574561 230.75423438 250.40983582 229.14982605 C257.42488939 224.98804556 261.55125636 216.18711371 266.02311707 209.4584198 C271.34682783 201.46146428 276.72518143 193.50213725 282.11296082 185.54826355 C283.11562062 184.06718142 284.11822343 182.58606071 285.12077332 181.10490417 C287.19396007 178.04209363 289.26738645 174.97944552 291.34098816 171.91691589 C294.30379199 167.54083729 297.26528487 163.16387304 300.22624207 158.7865448 C300.93408089 157.74013824 300.93408089 157.74013824 301.65621948 156.67259216 C304.02509923 153.17053861 306.39373984 149.66832351 308.76213074 146.16593933 C313.22030034 139.57371092 317.68047724 132.98286846 322.14775085 126.39680481 C324.23842265 123.3142796 326.32795447 120.23098246 328.41740417 117.14762878 C329.40593222 115.68956192 330.39500777 114.23186606 331.38468933 112.77458191 C334.41403816 108.31376534 337.42999369 103.84440693 340.42546082 99.36076355 C341.14507996 98.28528259 341.8646991 97.20980164 342.60612488 96.10173035 C343.24259949 95.13018005 343.8790741 94.15862976 344.53483582 93.15763855 C345.08107605 92.32716003 345.62731628 91.49668152 346.19010925 90.64103699 C348.26475488 86.81155276 348.29526437 84.63729769 347.42546082 80.36076355 C345.62903603 77.35798052 343.60939191 74.9527291 340.42546082 73.36076355 C331.97551938 72.35822813 327.69985411 75.85834814 322.92546082 82.68888855 Z M127.67546082 83.36076355 C124.96512859 87.69729511 125.24796471 92.03644412 125.22233582 96.9740448 C125.21663574 97.82121567 125.21093567 98.66838654 125.20506287 99.54122925 C125.19561879 101.33417006 125.18908124 103.12712818 125.18522644 104.92008972 C125.17553419 107.65257863 125.14451119 110.38431093 125.11296082 113.11662292 C125.10642903 114.8607591 125.10117925 116.60490063 125.09733582 118.3490448 C125.08498901 119.16174332 125.07264221 119.97444183 125.05992126 120.81176758 C125.08227971 126.55334782 126.01056093 130.94586366 130.23796082 135.17326355 C133.09048954 136.72177914 135.17176386 137.23061567 138.42546082 137.36076355 C143.13715048 135.66455527 145.79386712 133.60313383 148.42546082 129.36076355 C149.00934858 126.13093176 148.98631045 122.95243987 148.95671082 119.6771698 C148.96245117 118.27748207 148.96245117 118.27748207 148.9683075 116.84951782 C148.97102393 114.88019225 148.96368154 112.91083043 148.94694519 110.9415741 C148.92555574 107.9365997 148.94674335 104.93402263 148.97233582 101.92912292 C148.96969202 100.01179997 148.96456597 98.09447849 148.95671082 96.1771698 C148.96480774 95.28325027 148.97290466 94.38933075 148.98124695 93.46832275 C148.89670392 87.80714727 148.10092877 84.7212912 144.42546082 80.36076355 C138.56081001 76.06001963 132.14039318 78.2579837 127.67546082 83.36076355 Z M313.03483582 175.0599823 C306.30672364 184.67856985 304.83775694 194.93431823 306.42546082 206.36076355 C308.6493605 215.62878566 313.99801029 224.22737863 322.12321472 229.45256042 C332.49827302 235.42565751 342.59172817 238.40384945 354.42546082 235.23576355 C365.83487205 231.38486337 373.78780727 224.7905482 379.30046082 214.11076355 C383.66843184 205.02769797 384.03207727 194.06082908 380.86296082 184.48576355 C376.67532705 174.61700425 369.27402086 166.29834387 359.34733582 162.04045105 C341.46334653 155.98023667 325.0749018 160.39650744 313.03483582 175.0599823 Z M129.42546082 170.36076355 C125.067754 175.00898415 125.25383062 179.90633201 125.22233582 185.9740448 C125.21663574 186.82121567 125.21093567 187.66838654 125.20506287 188.54122925 C125.19561879 190.33417006 125.18908124 192.12712818 125.18522644 193.92008972 C125.17553419 196.65257863 125.14451119 199.38431093 125.11296082 202.11662292 C125.10642903 203.8607591 125.10117925 205.60490063 125.09733582 207.3490448 C125.08498901 208.16174332 125.07264221 208.97444183 125.05992126 209.81176758 C125.08226177 215.54874152 126.23255302 219.55166678 129.84342957 224.1771698 C132.95818592 226.507469 136.64118641 226.58032896 140.42546082 226.36076355 C144.55778277 224.33216914 146.71365258 222.59468762 148.42546082 218.36076355 C148.74338253 216.26715753 148.74338253 216.26715753 148.7318573 214.05461121 C148.7478447 213.21338715 148.76383209 212.37216309 148.78030396 211.50544739 C148.78566666 210.60434235 148.79102936 209.7032373 148.79655457 208.77482605 C148.80558304 207.84028595 148.81461151 206.90574585 148.82391357 205.94288635 C148.83840739 203.96762796 148.84730065 201.99232166 148.85099792 200.01701355 C148.86289214 197.00316556 148.9120839 193.99136697 148.96257019 190.97795105 C148.97203519 189.05608601 148.97926986 187.13420844 148.98405457 185.21232605 C149.00358688 184.31526947 149.0231192 183.41821289 149.04324341 182.49397278 C149.01252761 178.21070878 148.81916963 175.26951174 146.10148621 171.84269714 C140.48562356 166.63415233 135.93468067 166.6054444 129.42546082 170.36076355 Z " fill="#000000" transform="translate(30.574539184570313,103.63923645019531)"/>
<path d="M0 0 C4.14225324 2.30035811 6.38797331 4.90572448 7.8125 9.4375 C8.72528154 14.80959969 8.1724956 19.3493926 5.13671875 23.9296875 C2.2733395 27.19005443 -0.92093457 29.05170163 -5.20703125 29.78125 C-9.94173612 29.99852135 -13.28284608 29.04060261 -17.1875 26.4375 C-21.42516753 22.48234364 -22.99405338 19.48790124 -23.31640625 13.67578125 C-23.06938987 9.38667865 -21.7234394 6.0529567 -18.75390625 2.9296875 C-13.00580305 -2.08736018 -7.02727273 -3.06787653 0 0 Z " fill="#000000" transform="translate(276.1875,196.5625)"/>
<path d="M0 0 C3.5677811 2.35149209 5.84221079 4.99692157 7.75 8.8125 C8.30392533 14.73524007 8.31489548 19.82164632 4.75 24.8125 C-0.55994258 28.90558074 -4.53979421 30.37168382 -11.25 29.8125 C-16.56114739 27.87210168 -19.62523669 24.86012175 -22.25 19.8125 C-23.82668304 15.08245089 -23.00785653 11.49180378 -21.33984375 6.93359375 C-17.13439256 -1.25120911 -8.1436653 -2.97557001 0 0 Z " fill="#000000" transform="translate(382.25,287.1875)"/>
</svg>
