<svg width="6" height="10" viewBox="0 0 6 10" fill="none" xmlns="http://www.w3.org/2000/svg">
<path d="M0 8.9375C0.0290119 8.87283 0.0612837 8.82789 0.111336 8.77791C0.125491 8.76367 0.139646 8.74943 0.15423 8.73475C0.169821 8.71929 0.185411 8.70382 0.201474 8.68789C0.218005 8.67132 0.234535 8.65476 0.251567 8.63769C0.307149 8.58203 0.362885 8.52653 0.41862 8.47103C0.458429 8.43124 0.498228 8.39143 0.538019 8.35162C0.623786 8.26583 0.709631 8.18012 0.79553 8.09446C0.919725 7.97061 1.0438 7.84665 1.16785 7.72265C1.36911 7.52149 1.57047 7.32042 1.77188 7.11941C1.96755 6.92414 2.16316 6.72883 2.35872 6.53345C2.37077 6.52141 2.38282 6.50937 2.39524 6.49696C2.45571 6.43655 2.51618 6.37614 2.57664 6.31572C3.0783 5.81451 3.58012 5.31346 4.08203 4.8125C4.05302 4.74783 4.02075 4.70289 3.9707 4.65291C3.95654 4.63867 3.94239 4.62443 3.9278 4.60975C3.91221 4.59429 3.89662 4.57882 3.88056 4.56289C3.86403 4.54632 3.8475 4.52976 3.83046 4.51269C3.77488 4.45703 3.71915 4.40153 3.66341 4.34603C3.6236 4.30624 3.5838 4.26643 3.54401 4.22662C3.45825 4.14083 3.3724 4.05512 3.2865 3.96946C3.16231 3.84561 3.03823 3.72165 2.91418 3.59765C2.71292 3.39649 2.51156 3.19542 2.31015 2.99441C2.11449 2.79914 1.91887 2.60383 1.72331 2.40845C1.71126 2.39641 1.69921 2.38437 1.68679 2.37196C1.62632 2.31155 1.56585 2.25114 1.50539 2.19072C1.00373 1.68951 0.501915 1.18846 0 0.6875C0.0288925 0.627625 0.0557419 0.583485 0.103068 0.536585C0.115109 0.524548 0.127149 0.51251 0.139555 0.500109C0.152491 0.487393 0.165428 0.474679 0.178757 0.461578C0.192048 0.448348 0.20534 0.435117 0.219034 0.421485C0.261401 0.379357 0.303916 0.337383 0.346436 0.29541C0.375231 0.26683 0.404017 0.23824 0.432793 0.209641C0.50326 0.139647 0.57386 0.069788 0.644531 0C0.714521 0.0307121 0.760988 0.0681391 0.81486 0.122072C0.831495 0.138622 0.848131 0.155172 0.865271 0.172224C0.883411 0.19049 0.901551 0.208755 0.920242 0.227574C0.939616 0.246912 0.958991 0.26625 0.978953 0.286174C1.03275 0.33987 1.0864 0.393702 1.14004 0.447554C1.1979 0.505596 1.25588 0.563516 1.31385 0.621449C1.41427 0.721847 1.51461 0.822322 1.61489 0.922852C1.75989 1.0682 1.90501 1.21343 2.05016 1.35863C2.28564 1.59421 2.52103 1.82988 2.75636 2.06562C2.98497 2.29462 3.21363 2.52358 3.44235 2.75249C3.45644 2.76659 3.47054 2.7807 3.48506 2.79523C3.55577 2.866 3.62649 2.93677 3.6972 3.00754C4.28395 3.59473 4.87054 4.18208 5.45703 4.76953C5.42632 4.83952 5.38889 4.88599 5.33496 4.93986C5.31841 4.95649 5.30186 4.97313 5.28481 4.99027C5.26654 5.00841 5.24828 5.02655 5.22946 5.04524C5.21012 5.06462 5.19078 5.08399 5.17086 5.10395C5.11716 5.15775 5.06333 5.2114 5.00948 5.26504C4.95143 5.3229 4.89352 5.38088 4.83558 5.43885C4.73518 5.53927 4.63471 5.63961 4.53418 5.73989C4.38883 5.88489 4.2436 6.03001 4.0984 6.17516C3.86282 6.41064 3.62715 6.64603 3.39142 6.88136C3.16241 7.10997 2.93345 7.33863 2.70455 7.56735C2.69044 7.58144 2.67633 7.59554 2.6618 7.61006C2.59103 7.68077 2.52026 7.75149 2.44949 7.8222C1.8623 8.40895 1.27495 8.99554 0.6875 9.58203C0.627625 9.55314 0.583485 9.52629 0.536585 9.47896C0.524548 9.46692 0.51251 9.45488 0.500108 9.44248C0.487393 9.42954 0.474679 9.4166 0.461578 9.40327C0.448348 9.38998 0.435117 9.37669 0.421485 9.363C0.379358 9.32063 0.337383 9.27812 0.29541 9.2356C0.26683 9.2068 0.23824 9.17801 0.209641 9.14924C0.139646 9.07877 0.069788 9.00817 0 8.9375Z" fill="#03314B"/>
</svg>
