<svg width="20" height="20" viewBox="0 0 20 20" fill="none" xmlns="http://www.w3.org/2000/svg">
<path d="M13.0917 10.5622C13.9087 9.95156 14.505 9.11418 14.7977 8.16657C15.0904 7.21896 15.0649 6.20825 14.7248 5.27503C14.3847 4.34182 13.7469 3.53251 12.9001 2.95971C12.0532 2.38691 11.0395 2.0791 10 2.0791C8.96045 2.0791 7.94676 2.38691 7.09994 2.95971C6.25312 3.53251 5.61528 4.34182 5.27517 5.27503C4.93506 6.20825 4.90959 7.21896 5.2023 8.16657C5.49501 9.11418 6.09134 9.95156 6.90833 10.5622C5.5084 11.095 4.2869 11.9788 3.37407 13.1192C2.46125 14.2597 1.8913 15.6141 1.725 17.038C1.71296 17.142 1.72259 17.2472 1.75335 17.3476C1.78411 17.448 1.83539 17.5417 1.90426 17.6233C2.04335 17.7881 2.24565 17.8937 2.46666 17.9168C2.68768 17.9399 2.9093 17.8786 3.08277 17.7465C3.25624 17.6144 3.36735 17.4222 3.39166 17.2122C3.57465 15.6646 4.3514 14.2354 5.57351 13.1975C6.79562 12.1596 8.37741 11.5859 10.0167 11.5859C11.6559 11.5859 13.2377 12.1596 14.4598 13.1975C15.6819 14.2354 16.4587 15.6646 16.6417 17.2122C16.6643 17.4067 16.762 17.5864 16.9159 17.7165C17.0698 17.8466 17.269 17.918 17.475 17.9168H17.5667C17.7851 17.8929 17.9848 17.788 18.1221 17.6249C18.2595 17.4617 18.3234 17.2537 18.3 17.046C18.1329 15.6179 17.5599 14.2601 16.6424 13.1179C15.7249 11.9757 14.4974 11.0922 13.0917 10.5622ZM10 10.0001C9.34073 10.0001 8.69626 9.8144 8.1481 9.46644C7.59993 9.11848 7.17269 8.62392 6.9204 8.04528C6.66811 7.46665 6.6021 6.82994 6.73071 6.21567C6.85933 5.60139 7.1768 5.03715 7.64297 4.59428C8.10915 4.15141 8.70309 3.84982 9.3497 3.72763C9.9963 3.60545 10.6665 3.66816 11.2756 3.90783C11.8847 4.14751 12.4053 4.55339 12.7716 5.07415C13.1378 5.5949 13.3333 6.20715 13.3333 6.83345C13.3333 7.67331 12.9821 8.47876 12.357 9.07262C11.7319 9.66649 10.8841 10.0001 10 10.0001Z" fill="#6C6868"/>
</svg>
